<svg width="23" height="17" viewBox="0 0 23 17" fill="none" xmlns="http://www.w3.org/2000/svg">
<path d="M19.4705 1.40921C18.0045 0.756953 16.4325 0.276392 14.7889 0.00115385C14.759 -0.00415622 14.7291 0.00911895 14.7136 0.0356693C14.5115 0.384364 14.2876 0.839259 14.1307 1.1968C12.3629 0.940151 10.6041 0.940151 8.87255 1.1968C8.71571 0.831294 8.48363 0.384364 8.28056 0.0356693C8.26514 0.010004 8.23523 -0.00327121 8.20531 0.00115385C6.56259 0.275507 4.99058 0.756068 3.52373 1.40921C3.51104 1.41452 3.50016 1.42337 3.49291 1.43487C0.511168 5.75461 -0.305661 9.96815 0.0950476 14.1295C0.0968608 14.1498 0.108646 14.1693 0.124965 14.1817C2.09224 15.5827 3.99787 16.4332 5.86815 16.9969C5.89807 17.0058 5.92979 16.9951 5.94883 16.9712C6.39124 16.3854 6.78561 15.7676 7.12376 15.118C7.1437 15.08 7.12467 15.0348 7.08387 15.0198C6.45833 14.7897 5.86271 14.5091 5.28975 14.1905C5.24442 14.1649 5.24079 14.102 5.2825 14.0719C5.40307 13.9843 5.52365 13.8932 5.63878 13.8011C5.65963 13.7843 5.68864 13.7808 5.71312 13.7914C9.47724 15.4579 13.5523 15.4579 17.272 13.7914C17.2965 13.7799 17.3255 13.7834 17.3473 13.8002C17.4624 13.8923 17.583 13.9843 17.7045 14.0719C17.7462 14.102 17.7434 14.1649 17.6981 14.1905C17.1251 14.5153 16.5295 14.7897 15.9031 15.0189C15.8623 15.034 15.8442 15.08 15.8641 15.118C16.2095 15.7667 16.6039 16.3845 17.0381 16.9704C17.0562 16.9951 17.0889 17.0058 17.1188 16.9969C18.9981 16.4332 20.9038 15.5827 22.871 14.1817C22.8883 14.1693 22.8992 14.1507 22.901 14.1304C23.3805 9.31944 22.0977 5.14041 19.5004 1.43576C19.494 1.42337 19.4832 1.41452 19.4705 1.40921ZM7.68584 11.5957C6.55261 11.5957 5.61884 10.5868 5.61884 9.34776C5.61884 8.10874 6.53448 7.09983 7.68584 7.09983C8.84626 7.09983 9.77097 8.11759 9.75284 9.34776C9.75284 10.5868 8.8372 11.5957 7.68584 11.5957ZM15.3283 11.5957C14.1951 11.5957 13.2613 10.5868 13.2613 9.34776C13.2613 8.10874 14.1769 7.09983 15.3283 7.09983C16.4887 7.09983 17.4134 8.11759 17.3953 9.34776C17.3953 10.5868 16.4887 11.5957 15.3283 11.5957Z" fill="#818193"/>
</svg>
