<svg width="22" height="22" viewBox="0 0 22 22" fill="none" xmlns="http://www.w3.org/2000/svg">
<path d="M5.04169 0.916656C4.2823 0.916656 3.66669 1.53226 3.66669 2.29166V19.7083C3.66669 20.4677 4.2823 21.0833 5.04169 21.0833H16.9584C17.7177 21.0833 18.3334 20.4677 18.3334 19.7083V6.41666L12.8334 0.916656H5.04169Z" fill="#818193"/>
<path d="M18.3333 11.1146V6.41668L17.5313 5.61459H13.6632C13.357 5.61459 13.2036 5.98486 13.4202 6.20141L18.3333 11.1146Z" fill="#535364"/>
<path d="M12.8333 0.916656L18.3333 6.41666H14.2083C13.4489 6.41666 12.8333 5.80105 12.8333 5.04166V0.916656Z" fill="#AAAAB7"/>
<path d="M14.6666 11H7.33331V11.9167H14.6666V11Z" fill="#3D3A4A"/>
<path d="M14.6666 12.8333H7.33331V13.75H14.6666V12.8333Z" fill="#3D3A4A"/>
<path d="M7.33331 14.6667H14.6666V15.5833H7.33331V14.6667Z" fill="#3D3A4A"/>
<path d="M12.8333 16.5H7.33331V17.4167H12.8333V16.5Z" fill="#3D3A4A"/>
</svg>
