<svg width="24" height="25" viewBox="0 0 24 25" fill="none" xmlns="http://www.w3.org/2000/svg">
<g id="Icon / 24 / Contact ">
<path id="Vector" d="M20.9727 4.8074C20.9568 4.56671 20.7982 4.35899 20.5703 4.28009C20.3423 4.2012 20.0893 4.26648 19.928 4.44581C19.5133 4.90679 18.9891 5.21917 18.4571 5.3616C17.7173 4.67085 16.7231 4.24709 15.6307 4.24709C13.2861 4.24709 11.387 6.15044 11.387 8.49639V9.02415C7.79756 8.74676 5.87804 6.02004 5.36009 4.6367C5.27637 4.4131 5.06803 4.26042 4.8296 4.24792C4.59117 4.23542 4.36801 4.36547 4.26137 4.5791C3.0053 7.09511 2.81177 9.5354 3.72467 11.6134C4.52437 13.4337 6.13265 14.8837 8.41207 15.8444C7.37613 16.5785 5.63253 17.447 3.60004 17.447C3.33572 17.447 3.10254 17.62 3.02585 17.8729C2.94917 18.1259 3.04705 18.3992 3.26687 18.546C5.21578 19.8473 7.25835 19.8471 9.15818 19.847L9.21632 19.847C15.0491 19.847 19.7759 15.1116 19.7759 9.27206V8.69811C20.212 8.25486 20.5515 7.80112 20.7596 7.21454C20.9918 6.56001 21.0386 5.80106 20.9727 4.8074Z" fill="#818193" />
</g>
</svg>
